<svg width="198" height="146" viewBox="0 0 198 146" fill="none" xmlns="http://www.w3.org/2000/svg">
<path d="M166.182 18.6999C134.982 54.5999 89.5819 103.6 88.5819 102.6C88.2819 102.4 97.2819 86.0999 108.582 66.2999C135.782 18.5999 136.782 16.6999 135.982 14.7999C135.182 12.4999 128.482 8.19991 124.782 7.39992C121.882 6.89992 121.182 7.59991 107.282 24.1999C71.5819 66.7999 38.9819 103.6 41.8819 97.9999C42.3819 97.1999 46.3819 90.8999 50.7819 83.9999C60.5819 68.8999 71.0819 51.4999 74.7819 44.0999C77.0819 39.4999 77.382 37.6999 77.0819 32.5999C75.1819 4.49991 37.0819 11.8999 16.9819 44.1999C10.9819 53.6999 7.28195 63.6999 7.28195 70.0999C7.28195 80.4999 11.1819 88.8999 14.7819 85.9999C15.5819 85.2999 16.2819 84.1999 16.2819 83.5999C16.2819 81.4999 26.8819 60.5999 31.7819 52.9999C36.8819 44.9999 47.2819 33.4999 53.6819 28.8999C57.5819 25.9999 63.5819 24.9999 64.7819 26.9999C65.7819 28.4999 61.8819 35.2999 46.2819 58.9999C38.1819 71.3999 24.1819 93.5999 15.2819 108.4C-0.618054 134.8 -0.918054 135.4 0.581946 137.9C2.98195 142.1 9.68195 146.3 12.2819 145.5C14.9819 144.6 59.0819 100.7 72.2819 85.7999C77.4819 79.8999 81.7819 75.1999 81.9819 75.3999C82.1819 75.4999 79.9819 79.6999 77.1819 84.5999C74.382 89.4999 66.882 102.9 60.5819 114.4C49.9819 133.5 49.1819 135.4 50.3819 137.6C51.5819 139.9 60.2819 145 62.9819 145C65.1819 145 92.2819 118.9 112.382 97.3999C123.082 85.8999 133.682 74.5999 136.082 71.9999L140.382 67.4999L137.282 72.9999C131.082 83.8999 120.182 106.6 118.282 112.9C113.982 126.6 116.382 138.5 124.382 142.9C132.682 147.6 143.282 144.4 157.482 133.2C168.582 124.4 182.282 108.1 185.782 99.4999C187.982 94.3999 187.782 85.6999 185.382 83.5999C183.582 81.8999 183.382 81.9999 181.882 84.1999C168.782 102.6 154.782 118.8 143.782 128.2C135.982 134.8 132.882 136.1 130.482 133.7C129.182 132.3 129.082 131.5 130.182 127.8C132.882 118.8 148.582 90.5999 172.682 51.0999C189.282 23.9999 197.282 10.3999 197.282 9.19991C197.282 6.79991 187.082 -9.15527e-05 183.482 -9.15527e-05C182.982 -9.15527e-05 175.182 8.39992 166.182 18.6999Z" fill="#5BA8F5"/>
</svg>
